<!--?xml version="1.0" standalone="no"?--><svg version="1.0" xmlns="http://www.w3.org/2000/svg" width="300.000000pt" height="300.000000pt" viewBox="0 0 300.000000 300.000000" preserveAspectRatio="xMidYMid meet">
<metadata>
  <rdf:rdf xmlns:rdf="http://www.w3.org/1999/02/22-rdf-syntax-ns#" xmlns:rdfs="http://www.w3.org/2000/01/rdf-schema#" xmlns:dc="http://purl.org/dc/elements/1.1/">
    <rdf:description dc:title="company" dc:publisher="Hiox" dc:date="2015-04-21" dc:format="image/svg+xml" dc:language="en">
      <dc:creator>
        <rdf:bag>
          <rdf:li>svgimages.com</rdf:li>
        </rdf:bag>
      </dc:creator>
    </rdf:description>
  </rdf:rdf>
</metadata>
<g transform="translate(0.000000,300.000000) scale(0.100000,-0.100000)" fill="#070706" stroke="none">
<path d="M1675 2555 c-33 -8 -71 -19 -85 -25 l-25 -11 25 7 c14 3 75 8 136 11
126 6 229 -14 340 -66 273 -128 490 -415 598 -791 48 -170 60 -268 60 -515 0
-219 -5 -284 -35 -397 l-10 -38 -79 0 -80 0 0 60 0 60 -85 0 -85 0 0 350 0
350 -220 0 -220 0 0 30 0 30 173 2 172 3 3 38 3 37 -175 0 -176 0 0 229 0 228
-250 87 c-137 47 -254 86 -260 86 -7 0 -10 -181 -10 -550 l0 -550 -40 0 -40 0
0 420 c0 231 -1 420 -3 420 -1 0 -38 -13 -80 -30 -49 -19 -97 -30 -128 -30
l-49 0 0 220 c0 213 -1 220 -20 220 -19 0 -20 -7 -20 -219 l0 -220 -37 -3
c-37 -3 -38 -4 -41 -48 -3 -45 -3 -46 -70 -80 l-67 -35 -3 -172 -2 -172 -38
-3 c-37 -3 -37 -3 -37 -48 0 -45 0 -45 38 -48 l37 -3 0 -55 0 -54 -40 0 -40 0
0 -45 0 -45 40 0 40 0 0 -135 0 -134 -112 -3 -113 -3 0 -80 0 -80 59 -5 c57
-5 59 -5 131 47 40 29 76 53 79 53 3 0 6 -23 6 -50 l0 -50 68 45 67 45 5 -45
5 -45 64 45 c36 25 68 45 73 45 4 0 8 -18 8 -40 0 -22 3 -40 6 -40 3 0 32 20
64 45 32 25 61 45 64 45 3 0 6 -59 6 -132 l0 -132 28 27 c59 56 144 72 218 38
49 -22 102 -83 110 -127 5 -30 8 -32 38 -27 50 8 112 -14 156 -56 22 -21 40
-43 40 -49 0 -9 -104 -12 -400 -12 -330 0 -400 2 -400 14 0 19 41 61 79 80
l31 17 0 89 0 90 -340 0 -340 0 0 -62 c0 -66 -32 -152 -57 -154 -7 -1 -22 -2
-33 -2 -10 -1 -34 -18 -53 -37 -32 -33 -37 -35 -103 -35 -68 -1 -69 -1 -124
-50 l-55 -49 1400 0 1400 0 38 49 38 50 -70 0 c-39 0 -71 4 -71 9 0 4 14 38
30 75 44 97 96 286 116 418 13 89 15 157 11 318 -6 230 -22 327 -82 506 -70
211 -173 387 -310 533 -210 222 -448 332 -714 330 -64 -1 -143 -7 -176 -14z
m-65 -625 l0 -60 -60 0 -60 0 0 60 0 60 60 0 60 0 0 -60z m210 0 l0 -60 -60 0
-60 0 0 60 0 60 60 0 60 0 0 -60z m-832 -198 l-3 -57 -60 0 -60 0 -3 49 c-2
27 -1 54 1 60 3 7 27 10 66 8 l62 -4 -3 -56z m202 -2 l0 -60 -60 0 -60 0 0 60
0 60 60 0 60 0 0 -60z m420 0 l0 -60 -60 0 -60 0 0 60 0 60 60 0 60 0 0 -60z
m210 0 l0 -60 -60 0 -60 0 0 60 0 60 60 0 60 0 0 -60z m-212 -192 l3 -58 -61
0 -60 0 0 60 0 61 58 -3 57 -3 3 -57z m212 2 l0 -60 -60 0 -60 0 0 53 c0 30 3
57 7 60 3 4 30 7 60 7 l53 0 0 -60z m-830 -20 l0 -61 -62 3 -63 3 -3 44 c-5
66 -1 71 68 71 l60 0 0 -60z m200 0 l0 -60 -60 0 -60 0 0 60 0 60 60 0 60 0 0
-60z m820 -540 l0 -530 -40 0 -40 0 0 530 0 530 40 0 40 0 0 -530z m140 0 l0
-530 -35 0 -35 0 0 530 0 530 35 0 35 0 0 -530z m150 0 l0 -530 -40 0 -40 0 0
530 0 530 40 0 40 0 0 -530z m-690 360 l0 -60 -60 0 -60 0 0 60 0 60 60 0 60
0 0 -60z m210 0 l0 -60 -60 0 -60 0 0 60 0 60 60 0 60 0 0 -60z m-832 -32 l3
-58 -66 0 -65 0 0 53 c0 30 3 57 7 61 4 4 32 6 63 4 l55 -3 3 -57z m200 0 l3
-58 -61 0 -60 0 0 60 0 61 58 -3 57 -3 3 -57z m422 -168 l0 -60 -60 0 -60 0 0
60 0 60 60 0 60 0 0 -60z m210 0 l0 -60 -60 0 -60 0 0 60 0 60 60 0 60 0 0
-60z m-832 -47 l-3 -58 -60 0 -60 0 -3 58 -3 57 66 0 66 0 -3 -57z m202 -3 l0
-60 -60 0 -60 0 0 60 0 60 60 0 60 0 0 -60z m415 -145 l0 -60 -57 -3 -58 -3 0
66 0 66 58 -3 57 -3 0 -60z m215 0 l0 -65 -60 0 -60 0 0 65 0 65 60 0 60 0 0
-65z m0 -195 l0 -60 -60 0 -60 0 0 60 0 60 60 0 60 0 0 -60z m-900 -190 l0
-60 -60 0 -60 0 0 60 0 60 60 0 60 0 0 -60z m200 0 l0 -60 -60 0 -60 0 0 60 0
60 60 0 60 0 0 -60z m1491 -33 c-43 -100 -71 -148 -81 -142 -6 4 -10 51 -10
105 0 110 -1 109 82 102 l36 -4 -27 -61z" id="node1" class="node"></path>
</g>
<g transform="translate(0.000000,300.000000) scale(0.100000,-0.100000)" fill="#B1B1A1" stroke="none">

<path d="M1490 1930 l0 -60 60 0 60 0 0 60 0 60 -60 0 -60 0 0 -60z" id="node3" class="node"></path>
<path d="M1700 1930 l0 -60 60 0 60 0 0 60 0 60 -60 0 -60 0 0 -60z" id="node4" class="node"></path>
<path d="M863 1784 c-2 -6 -3 -33 -1 -60 l3 -49 60 0 60 0 3 57 3 56 -62 4
c-39 2 -63 -1 -66 -8z" id="node5" class="node"></path>
<path d="M1070 1730 l0 -60 60 0 60 0 0 60 0 60 -60 0 -60 0 0 -60z" id="node6" class="node"></path>
<path d="M1490 1730 l0 -60 60 0 60 0 0 60 0 60 -60 0 -60 0 0 -60z" id="node7" class="node"></path>
<path d="M1700 1730 l0 -60 60 0 60 0 0 60 0 60 -60 0 -60 0 0 -60z" id="node8" class="node"></path>
<path d="M1490 1540 l0 -60 60 0 61 0 -3 58 -3 57 -57 3 -58 3 0 -61z" id="node9" class="node"></path>
<path d="M1707 1593 c-4 -3 -7 -30 -7 -60 l0 -53 60 0 60 0 0 60 0 60 -53 0
c-30 0 -57 -3 -60 -7z" id="node10" class="node"></path>
<path d="M864 1566 c-3 -7 -4 -33 -2 -57 l3 -44 63 -3 62 -3 0 61 0 60 -60 0
c-42 0 -62 -4 -66 -14z" id="node11" class="node"></path>
<path d="M1070 1520 l0 -60 60 0 60 0 0 60 0 60 -60 0 -60 0 0 -60z" id="node12" class="node"></path>
<path d="M1930 980 l0 -530 40 0 40 0 0 530 0 530 -40 0 -40 0 0 -530z" id="node13" class="node"></path>
<path d="M2080 980 l0 -530 35 0 35 0 0 530 0 530 -35 0 -35 0 0 -530z" id="node14" class="node"></path>
<path d="M2220 980 l0 -530 40 0 40 0 0 530 0 530 -40 0 -40 0 0 -530z" id="node15" class="node"></path>
<path d="M1490 1340 l0 -60 60 0 60 0 0 60 0 60 -60 0 -60 0 0 -60z" id="node16" class="node"></path>
<path d="M1700 1340 l0 -60 60 0 60 0 0 60 0 60 -60 0 -60 0 0 -60z" id="node17" class="node"></path>
<path d="M867 1364 c-4 -4 -7 -31 -7 -61 l0 -53 65 0 66 0 -3 58 -3 57 -55 3
c-31 2 -59 0 -63 -4z" id="node18" class="node"></path>
<path d="M1070 1310 l0 -60 60 0 61 0 -3 58 -3 57 -57 3 -58 3 0 -61z" id="node19" class="node"></path>
<path d="M1490 1140 l0 -60 60 0 60 0 0 60 0 60 -60 0 -60 0 0 -60z" id="node20" class="node"></path>
<path d="M1700 1140 l0 -60 60 0 60 0 0 60 0 60 -60 0 -60 0 0 -60z" id="node21" class="node"></path>
<path d="M862 1093 l3 -58 60 0 60 0 3 58 3 57 -66 0 -66 0 3 -57z" id="node22" class="node"></path>
<path d="M1070 1090 l0 -60 60 0 60 0 0 60 0 60 -60 0 -60 0 0 -60z" id="node23" class="node"></path>
<path d="M1490 945 l0 -66 58 3 57 3 0 60 0 60 -57 3 -58 3 0 -66z" id="node24" class="node"></path>
<path d="M1700 945 l0 -65 60 0 60 0 0 65 0 65 -60 0 -60 0 0 -65z" id="node25" class="node"></path>
<path d="M1700 750 l0 -60 60 0 60 0 0 60 0 60 -60 0 -60 0 0 -60z" id="node26" class="node"></path>
<path d="M800 560 l0 -60 60 0 60 0 0 60 0 60 -60 0 -60 0 0 -60z" id="node27" class="node"></path>
<path d="M1000 560 l0 -60 60 0 60 0 0 60 0 60 -60 0 -60 0 0 -60z" id="node28" class="node"></path>
<path d="M2543 592 c-22 -3 -23 -7 -23 -102 0 -54 4 -101 10 -105 10 -6 38 42
81 142 l27 61 -36 4 c-21 1 -47 2 -59 0z" id="node29" class="node"></path>
</g>
</svg>